<svg width="113" height="11" viewBox="0 0 113 11" fill="none" xmlns="http://www.w3.org/2000/svg">
<path d="M0 0.0822267H3.30028V10.9204H0V0.0822267Z" fill="white"/>
<path d="M6.12927 0.0816448H11.3817L17.9472 8.31998L17.8655 0.0816448H20.9878V10.9198H15.6931L9.21799 2.76311L9.29969 10.9198H6.12927V0.0816448Z" fill="white"/>
<path d="M37.3754 6.84001C37.3593 8.41623 37.3097 8.95281 37.0836 9.43982C36.6605 10.3672 35.7821 10.8061 34.0912 10.9198C33.4244 10.984 32.1244 11 29.9622 11C26.8399 11 25.8317 10.8542 24.9534 10.2855C23.881 9.60313 23.5717 8.4658 23.5717 5.24775C23.5717 2.38839 23.8971 1.36479 25.0307 0.714476C26.0068 0.145812 27.0471 0 30.0876 0C34.1364 0 35.0132 0.0816525 35.9412 0.536584C36.8166 0.974017 37.2251 1.93346 37.2251 3.52572V3.88295H34.0766C34.0109 2.69751 33.7673 2.59981 30.9061 2.59981C28.207 2.59981 27.7197 2.66397 27.3126 3.02267C26.9055 3.38136 26.8414 3.8188 26.8414 5.57291C26.8414 8.17272 27.085 8.36811 30.2554 8.36811C32.7109 8.36811 33.0684 8.35207 33.5236 8.15668C33.9788 7.96129 34.1743 7.6201 34.1743 6.84438L37.3754 6.84001Z" fill="white"/>
<path d="M39.9753 0.0816448H49.3232C51.2417 0.0816448 52.088 0.243495 52.7051 0.764041C53.3223 1.28459 53.6272 2.19299 53.6272 3.65548C53.6272 5.67059 53.1399 6.46672 51.7582 6.77584C53.1078 7.0033 53.509 7.57197 53.4813 9.21234V10.9198H50.1256V9.57104C50.1095 8.40455 49.7842 8.15667 48.3048 8.18875H43.2595V10.9198H39.9753V0.0816448ZM48.4127 5.54082C50.006 5.54082 50.3094 5.34543 50.3094 4.27372C50.3094 3.57528 50.2438 3.2822 50.0337 3.05474C49.7886 2.79519 49.5128 2.74562 48.5207 2.74562H43.2537V5.54082H48.4127Z" fill="white"/>
<path d="M68.3121 0.0816448V2.53419H59.5478V4.40349H67.8073V6.54838H59.5478V8.46579H68.4259V10.9198H56.2957V0.0816448H68.3121Z" fill="white"/>
<path d="M76.2418 0.0816448H80.6641L86.6008 10.9198H82.9912L81.9174 8.98488H74.9287L73.8885 10.9198H70.1461L76.2418 0.0816448ZM80.7647 6.72626L78.4303 2.40442L76.1134 6.72626H80.7647Z" fill="white"/>
<path d="M90.6466 2.76311H85.8173V0.0816448H98.7762V2.76311H93.9469V10.9198H90.6466V2.76311Z" fill="white"/>
<path d="M112.886 0.0816448V2.53419H104.122V4.40349H112.383V6.54838H104.122V8.46579H113V10.9198H100.871V0.0816448H112.886Z" fill="white"/>
</svg>
